<?xml version="1.0" encoding="UTF-8" standalone="no"?>
<svg
   height="24"
   viewBox="0 0 24 24"
   width="24"
   version="1.1"
   id="svg2"
   sodipodi:docname="open_in_new-24px.svg"
   xml:space="preserve"
   inkscape:export-filename="../../../../../Jumpy/Resources/Images/Jumpy.svg"
   inkscape:export-xdpi="96"
   inkscape:export-ydpi="96"
   xmlns:inkscape="http://www.inkscape.org/namespaces/inkscape"
   xmlns:sodipodi="http://sodipodi.sourceforge.net/DTD/sodipodi-0.dtd"
   xmlns="http://www.w3.org/2000/svg"
   xmlns:svg="http://www.w3.org/2000/svg"><sodipodi:namedview
     id="namedview1"
     pagecolor="#ffffff"
     bordercolor="#000000"
     borderopacity="0.25"
     inkscape:showpageshadow="2"
     inkscape:pageopacity="0.0"
     inkscape:pagecheckerboard="0"
     inkscape:deskcolor="#d1d1d1"
     showgrid="false" /><defs
     id="defs2" /><path
     d="M 0,0 H 24 V 24 H 0 Z"
     fill="none"
     id="path1" /><path
     style="fill:#000000;stroke-width:1.24659"
     d="M 13.649487,18.278872 V 14.564437 H 11.1326 c -2.2101667,0 -2.5168841,-0.0075 -2.5168841,-0.06089 0,-0.03351 0.015034,-0.06089 0.033396,-0.06089 0.018375,0 0.074458,-0.08221 0.1246332,-0.182678 0.050175,-0.100469 0.1053485,-0.182677 0.1226012,-0.182677 0.017253,0 0.073648,-0.0822 0.12532,-0.182677 0.051671,-0.100469 0.1075052,-0.182678 0.1240723,-0.182678 0.016566,0 0.068736,-0.07409 0.115932,-0.164644 0.047195,-0.09055 0.122115,-0.203605 0.1664784,-0.251225 0.044366,-0.04762 0.080667,-0.108041 0.080667,-0.134281 0,-0.02625 0.042609,-0.0913 0.094678,-0.144575 0.052069,-0.05328 0.1297105,-0.159183 0.172528,-0.235336 0.042825,-0.07615 0.1189488,-0.183861 0.1691887,-0.239349 0.050235,-0.05548 0.091363,-0.121055 0.091383,-0.145703 2.7e-5,-0.02465 0.04209,-0.09369 0.09347,-0.153438 0.05138,-0.05974 0.128998,-0.177302 0.17248,-0.261246 0.04348,-0.08394 0.11102,-0.185773 0.150098,-0.226287 0.03907,-0.04052 0.07105,-0.09193 0.07105,-0.11425 0,-0.02232 0.03198,-0.07398 0.07105,-0.114761 0.08711,-0.09094 0.210266,-0.286696 0.240659,-0.38253 0.01234,-0.03907 0.03829,-0.07105 0.05757,-0.07105 0.01927,0 0.07145,-0.07138 0.11597,-0.158635 0.04451,-0.08725 0.09512,-0.164887 0.112467,-0.172528 0.03895,-0.01717 0.170594,-0.232158 0.201148,-0.328505 0.01234,-0.03907 0.03829,-0.07105 0.05756,-0.07105 0.01926,0 0.07117,-0.07082 0.115321,-0.157373 0.04415,-0.08655 0.108465,-0.168186 0.142906,-0.181403 0.03444,-0.013215 0.06264,-0.049332 0.06264,-0.080267 0,-0.030924 0.0411,-0.1012249 0.09134,-0.1561954 0.05024,-0.054974 0.134896,-0.1809525 0.188135,-0.279943 0.05325,-0.09899 0.118226,-0.198253 0.144422,-0.2205805 0.02619,-0.022326 0.08931,-0.1273667 0.140247,-0.2334208 0.05094,-0.1060541 0.106383,-0.1928259 0.123211,-0.1928259 0.01682,0 0.07288,-0.082204 0.124545,-0.1826773 0.05167,-0.1004714 0.10611,-0.182677 0.12097,-0.182677 0.01486,0 0.06808,-0.082204 0.11825,-0.1826772 0.05017,-0.1004714 0.105349,-0.1826772 0.122601,-0.1826772 0.01725,0 0.07365,-0.082205 0.125319,-0.1826771 0.05167,-0.1004715 0.107505,-0.1826773 0.124073,-0.1826773 0.01656,0 0.06874,-0.07409 0.115931,-0.1646452 0.04719,-0.090555 0.122115,-0.2036057 0.166479,-0.2512242 0.04437,-0.047619 0.08066,-0.1094995 0.08066,-0.1375146 0,-0.028014 0.03318,-0.074806 0.07375,-0.1039811 0.04057,-0.029176 0.1182,-0.1340387 0.172529,-0.2330305 0.05432,-0.098992 0.139882,-0.2249665 0.190119,-0.2799437 0.05024,-0.054976 0.09134,-0.1212474 0.09134,-0.1472684 0,-0.02602 0.03289,-0.082723 0.07306,-0.1260056 0.04018,-0.043282 0.117826,-0.1601135 0.172527,-0.2596239 0.0547,-0.099512 0.131432,-0.2136839 0.170503,-0.2537184 0.03907,-0.040033 0.07105,-0.091058 0.07105,-0.1133853 0,-0.022327 0.03198,-0.073968 0.07105,-0.1147564 0.08711,-0.090932 0.210266,-0.286698 0.240658,-0.3825313 0.01234,-0.039073 0.03829,-0.071042 0.05756,-0.071042 0.01927,0 0.07231,-0.073072 0.117876,-0.1623798 0.04556,-0.089309 0.0986,-0.1623797 0.117877,-0.1623797 0.01927,0 0.04518,-0.031969 0.05756,-0.071042 0.02803,-0.088409 0.15494,-0.299673 0.213052,-0.3546836 0.02389,-0.022614 0.077,-0.095921 0.118026,-0.1629017 0.04102,-0.066981 0.09911,-0.1363932 0.129094,-0.1542482 0.02998,-0.017854 0.05449,-0.056289 0.05449,-0.08541 0,-0.029122 0.0411,-0.097929 0.09134,-0.1529059 0.05024,-0.054976 0.134896,-0.1809518 0.188134,-0.2799435 0.05324,-0.098992 0.117179,-0.1982528 0.142083,-0.2205799 0.02492,-0.022327 0.08767,-0.1273667 0.139472,-0.2334208 0.0518,-0.1060542 0.108303,-0.1928259 0.125551,-0.1928259 0.01725,0 0.07365,-0.082205 0.12532,-0.1826772 0.05167,-0.1004725 0.105199,-0.1826772 0.118936,-0.1826772 0.01373,0 0.06041,-0.068503 0.103728,-0.1522309 0.08801,-0.1701279 0.198887,-0.2943133 0.262774,-0.2943133 0.02902,0 0.04229,1.165822 0.04229,3.7144356 V 9.49006 h 2.476289 c 1.508844,0 2.476291,0.01482 2.476291,0.037961 0,0.068636 -0.07333,0.2325316 -0.130053,0.2906554 -0.03062,0.031379 -0.09996,0.1301145 -0.154111,0.2194236 -0.05414,0.0893 -0.121516,0.186067 -0.149705,0.215016 -0.02818,0.02894 -0.08119,0.11572 -0.117778,0.192826 -0.03659,0.0771 -0.08086,0.140189 -0.0984,0.140189 -0.01753,0 -0.07048,0.0741 -0.117688,0.164645 -0.04719,0.09055 -0.122116,0.203607 -0.16648,0.251224 -0.04437,0.04762 -0.08066,0.109501 -0.08066,0.137516 0,0.02801 -0.03318,0.07481 -0.07375,0.103975 -0.04057,0.02917 -0.118202,0.134041 -0.172528,0.233032 -0.05432,0.09899 -0.139883,0.224966 -0.190118,0.279942 -0.05024,0.05497 -0.09134,0.124872 -0.09134,0.155322 0,0.03046 -0.03654,0.08663 -0.08119,0.124879 -0.04466,0.03823 -0.08119,0.09019 -0.08119,0.115458 0,0.02527 -0.0411,0.09093 -0.09134,0.145902 -0.05024,0.05497 -0.134896,0.180951 -0.188134,0.279944 -0.05325,0.09899 -0.117179,0.198486 -0.142083,0.2211 -0.05858,0.0532 -0.18596,0.26342 -0.214903,0.354685 -0.01234,0.03907 -0.03829,0.07105 -0.05756,0.07105 -0.01927,0 -0.07145,0.07139 -0.11597,0.158635 -0.04451,0.08725 -0.09511,0.164887 -0.112466,0.17253 -0.03895,0.01717 -0.170594,0.232157 -0.201149,0.328504 -0.01234,0.03907 -0.03717,0.07105 -0.05508,0.07105 -0.01791,0 -0.07413,0.0685 -0.124972,0.152231 -0.05084,0.08374 -0.116255,0.166839 -0.145394,0.184694 -0.02913,0.01785 -0.05297,0.0563 -0.05297,0.08542 0,0.02912 -0.0432,0.09958 -0.09602,0.15656 -0.05282,0.05699 -0.136649,0.18753 -0.186299,0.290092 -0.04965,0.10257 -0.102383,0.186479 -0.117166,0.186479 -0.0148,0 -0.07253,0.08614 -0.128312,0.191419 -0.05578,0.105286 -0.14252,0.235823 -0.192755,0.290094 -0.05024,0.05425 -0.09134,0.119958 -0.09134,0.145981 0,0.02602 -0.03255,0.08272 -0.07234,0.126006 -0.03978,0.04328 -0.116743,0.151766 -0.171007,0.241075 -0.05429,0.08931 -0.121742,0.186067 -0.149934,0.215018 -0.02818,0.02895 -0.08119,0.11572 -0.117776,0.192826 -0.03659,0.0771 -0.08086,0.140187 -0.09839,0.140187 -0.01753,0 -0.07053,0.07418 -0.117776,0.164823 -0.04725,0.09065 -0.131301,0.213771 -0.186778,0.2736 -0.05547,0.05983 -0.100863,0.130895 -0.100863,0.157921 0,0.02702 -0.02425,0.06375 -0.05389,0.0816 -0.02963,0.01785 -0.09814,0.113888 -0.15223,0.21339 -0.0541,0.09952 -0.130315,0.213686 -0.169388,0.253721 -0.03907,0.04004 -0.07105,0.09829 -0.07105,0.129418 0,0.03115 -0.04535,0.09965 -0.10079,0.152233 -0.05544,0.05258 -0.101101,0.115771 -0.101484,0.140415 -3.86e-4,0.02465 -0.0418,0.08979 -0.09204,0.144774 -0.05024,0.05497 -0.134895,0.180953 -0.188134,0.279944 -0.05324,0.09899 -0.117178,0.198488 -0.142082,0.221102 -0.05858,0.0532 -0.18596,0.26342 -0.214903,0.354685 -0.01234,0.03907 -0.03829,0.07105 -0.05757,0.07105 -0.01927,0 -0.07231,0.07307 -0.117877,0.16238 -0.04555,0.0893 -0.0986,0.162379 -0.117876,0.162379 -0.01928,0 -0.04518,0.03196 -0.05756,0.07105 -0.03399,0.107206 -0.162992,0.310371 -0.220362,0.347075 -0.02792,0.01785 -0.08061,0.09093 -0.117141,0.16238 -0.03652,0.07145 -0.09132,0.144524 -0.121778,0.162378 -0.03047,0.01785 -0.0554,0.0563 -0.0554,0.08541 0,0.02912 -0.0411,0.0977 -0.09134,0.152392 -0.05024,0.0547 -0.133723,0.185235 -0.185525,0.290092 -0.05181,0.104864 -0.106632,0.190647 -0.121854,0.190647 -0.01522,0 -0.07331,0.08614 -0.129086,0.19142 -0.05578,0.105274 -0.142518,0.235822 -0.192756,0.290092 -0.05024,0.05429 -0.09134,0.11996 -0.09134,0.145984 0,0.02602 -0.03406,0.08386 -0.07569,0.128561 -0.04164,0.04469 -0.09709,0.121207 -0.123212,0.170035 -0.02613,0.04882 -0.06514,0.08879 -0.08668,0.08879 -0.02487,0 -0.03917,-1.35551 -0.03917,-3.714435 z m 1.939446,-2.293613 c 0.01625,0 0.07517,-0.08614 0.130963,-0.19142 0.05578,-0.105287 0.142521,-0.235822 0.192757,-0.290092 0.05024,-0.05429 0.09138,-0.118836 0.09144,-0.143489 5.3e-5,-0.02465 0.0551,-0.108752 0.122327,-0.186897 0.06723,-0.07814 0.144713,-0.192319 0.172194,-0.253719 0.02749,-0.06139 0.0634,-0.111631 0.07984,-0.111631 0.01643,0 0.06628,-0.07139 0.110785,-0.158636 0.04451,-0.08724 0.09512,-0.164887 0.112466,-0.172529 0.01733,-0.0076 0.07392,-0.100667 0.125719,-0.206719 0.0518,-0.106059 0.108302,-0.192825 0.12555,-0.192825 0.01725,0 0.07365,-0.0822 0.12532,-0.182678 0.05167,-0.10047 0.108066,-0.182678 0.125318,-0.182678 0.01725,0 0.07241,-0.0822 0.122602,-0.182677 0.05017,-0.100469 0.103387,-0.182677 0.11825,-0.182677 0.01486,0 0.0693,-0.0822 0.120968,-0.182677 0.05167,-0.100469 0.107506,-0.182677 0.124073,-0.182677 0.01657,0 0.06874,-0.07409 0.115932,-0.164645 0.04719,-0.09055 0.122115,-0.203607 0.166478,-0.251224 0.04437,-0.04762 0.08066,-0.107867 0.08066,-0.13389 0,-0.02602 0.04295,-0.09364 0.09543,-0.150279 0.05248,-0.05663 0.138676,-0.173474 0.191534,-0.259645 0.05285,-0.08618 0.128655,-0.19209 0.168438,-0.235374 0.03979,-0.04328 0.07234,-0.0992 0.07234,-0.124283 0,-0.02507 0.03196,-0.08192 0.07105,-0.126344 0.07435,-0.08453 0.172527,-0.243321 0.172527,-0.279054 0,-0.01147 -0.77618,-0.02084 -1.724847,-0.02084 H 15.274204 L 15.26361,9.5002299 C 15.25501,8.0902863 15.2437,7.7857345 15.20329,7.8764327 c -0.02737,0.0614 -0.06559,0.1116362 -0.08496,0.1116362 -0.01937,0 -0.07751,0.082204 -0.129173,0.1826772 -0.05167,0.1004714 -0.107504,0.1826772 -0.124071,0.1826772 -0.01656,0 -0.06877,0.074169 -0.11602,0.1648211 -0.04725,0.090651 -0.131298,0.2137719 -0.186775,0.2736008 -0.05547,0.059829 -0.100873,0.1308936 -0.100873,0.1579212 0,0.027027 -0.02425,0.063749 -0.05389,0.081605 -0.02964,0.017854 -0.09815,0.1138813 -0.152231,0.2133909 -0.0541,0.099515 -0.130314,0.213684 -0.169388,0.2537197 -0.03907,0.04003 -0.07105,0.09752 -0.07105,0.1277537 0,0.03023 -0.0411,0.1005729 -0.09134,0.1563289 -0.109276,0.1212681 -0.229841,0.3096674 -0.260956,0.4077794 -0.01234,0.03907 -0.03829,0.07105 -0.05757,0.07105 -0.01927,0 -0.07231,0.07308 -0.117875,0.162378 -0.04556,0.08931 -0.0986,0.16238 -0.117877,0.16238 -0.01927,0 -0.04518,0.03196 -0.05756,0.07105 -0.03055,0.09635 -0.162199,0.311341 -0.201147,0.328504 -0.01733,0.0077 -0.06795,0.08528 -0.112467,0.172527 -0.04451,0.08724 -0.09669,0.158636 -0.11597,0.158636 -0.01927,0 -0.04518,0.03198 -0.05757,0.07105 -0.03656,0.115284 -0.164153,0.3101 -0.240657,0.367449 -0.03907,0.02928 -0.07105,0.0777 -0.07105,0.107579 0,0.02988 -0.04534,0.09735 -0.10079,0.14993 -0.05543,0.05258 -0.101101,0.11577 -0.101483,0.140416 -3.85e-4,0.02465 -0.0418,0.09031 -0.09204,0.14589 -0.05024,0.05558 -0.140607,0.195267 -0.200822,0.31039 l -0.109487,0.209314 h 1.743429 1.743429 l 0.0018,1.735433 0.0018,1.735433 0.08038,-0.15223 c 0.0442,-0.08373 0.09366,-0.152231 0.109911,-0.152231 z M 3.7037303,17.000133 v -0.89309 H 7.8647107 12.02569 v 0.89309 0.893087 H 7.8647107 3.7037303 Z M 2.0393388,13.691955 v -0.8731 h 2.5176923 2.5176924 l -0.01097,0.862642 -0.01097,0.862642 -2.5067362,0.01048 -2.5067361,0.01047 z M 3.7037303,10.362862 V 9.4900734 h 2.922835 2.9228346 v 0.8727886 0.872791 H 6.6265653 3.7037303 Z M 6.9919193,7.0543771 V 6.1612887 H 9.1028548 11.213791 V 7.0543771 7.9474655 H 9.1028548 6.9919193 Z"
     id="path4" /></svg>
