<?xml version="1.0" encoding="UTF-8" standalone="no"?>
<svg
   height="512"
   viewBox="0 0 512 512"
   width="512"
   version="1.1"
   id="svg2"
   sodipodi:docname="Jumpy.svg"
   xml:space="preserve"
   inkscape:export-filename="../../../../../../Desktop/Jumpy.svg"
   inkscape:export-xdpi="2048"
   inkscape:export-ydpi="2048"
   inkscape:version="1.3.2 (091e20e, 2023-11-25)"
   xmlns:inkscape="http://www.inkscape.org/namespaces/inkscape"
   xmlns:sodipodi="http://sodipodi.sourceforge.net/DTD/sodipodi-0.dtd"
   xmlns="http://www.w3.org/2000/svg"
   xmlns:svg="http://www.w3.org/2000/svg"><sodipodi:namedview
     id="namedview1"
     pagecolor="#ffffff"
     bordercolor="#000000"
     borderopacity="0.25"
     inkscape:showpageshadow="2"
     inkscape:pageopacity="0.0"
     inkscape:pagecheckerboard="0"
     inkscape:deskcolor="#d1d1d1"
     showgrid="false"
     inkscape:zoom="2.3982321"
     inkscape:cx="139.47774"
     inkscape:cy="176.7969"
     inkscape:window-width="2880"
     inkscape:window-height="1567"
     inkscape:window-x="0"
     inkscape:window-y="25"
     inkscape:window-maximized="1"
     inkscape:current-layer="svg2" /><defs
     id="defs2" /><path
     d="M 0,0 H 24 V 24 H 0 Z"
     fill="none"
     id="path1" /><path
     style="fill:#ffffff;stroke-width:31.7711"
     d="m 297.94112,415.39179 v -94.66765 h -64.14644 c -56.32924,0 -64.14637,-0.19111 -64.14637,-1.55187 0,-0.85405 0.38319,-1.55186 0.85117,-1.55186 0.46832,0 1.89765,-2.09524 3.17645,-4.65581 1.27878,-2.5606 2.68495,-4.65577 3.12467,-4.65577 0.43968,0 1.877,-2.095 3.19395,-4.65579 1.31691,-2.56061 2.73991,-4.65581 3.16216,-4.65581 0.42216,0 1.75184,-1.8883 2.95469,-4.19619 1.20282,-2.3078 3.11227,-5.18916 4.24294,-6.40282 1.13072,-1.21366 2.05591,-2.75359 2.05591,-3.42234 0,-0.66907 1.08596,-2.32692 2.413,-3.68471 1.32706,-1.35791 3.30587,-4.05701 4.39712,-5.99787 1.09146,-1.9408 3.03159,-4.68597 4.31203,-6.10015 1.28029,-1.41398 2.3285,-3.08525 2.32901,-3.71345 6.9e-4,-0.62825 1.07273,-2.38782 2.38222,-3.91058 1.30949,-1.52257 3.2877,-4.5188 4.3959,-6.65823 1.10815,-2.13933 2.8295,-4.73469 3.82547,-5.76723 0.99575,-1.03272 1.8108,-2.34298 1.8108,-2.91183 0,-0.56887 0.81508,-1.88549 1.81081,-2.92485 2.22012,-2.31773 5.35892,-7.30686 6.13354,-9.74932 0.31452,-0.99575 0.97588,-1.81081 1.46724,-1.81081 0.4911,0 1.82102,-1.81922 2.95567,-4.04304 1.13439,-2.22369 2.42427,-4.20238 2.86638,-4.39713 0.99269,-0.43758 4.34783,-5.91687 5.12655,-8.37241 0.31453,-0.99576 0.97587,-1.81081 1.46699,-1.81081 0.49084,0 1.81387,-1.80495 2.93912,-4.01088 1.12522,-2.20584 2.76439,-4.28645 3.64216,-4.6233 0.87775,-0.33677 1.59647,-1.2573 1.59647,-2.04572 0,-0.7881 1.04748,-2.57987 2.32794,-3.98087 1.28043,-1.40109 3.43801,-4.61183 4.79489,-7.13475 1.35715,-2.52289 3.01316,-5.05275 3.68078,-5.62179 0.6675,-0.56905 2.2762,-3.24612 3.5744,-5.94907 1.29828,-2.70294 2.71133,-4.91444 3.14021,-4.91444 0.42873,0 1.85745,-2.09509 3.1742,-4.65579 1.31688,-2.56066 2.70437,-4.6558 3.08309,-4.6558 0.37873,0 1.73512,-2.09507 3.01378,-4.65578 1.27864,-2.56065 2.68497,-4.65579 3.12466,-4.65579 0.43968,0 1.87708,-2.0951 3.19392,-4.65577 1.3169,-2.56066 2.73993,-4.6558 3.16219,-4.6558 0.42208,0 1.75194,-1.88828 2.95467,-4.19622 1.2027,-2.30792 3.11227,-5.18918 4.24296,-6.4028 1.13082,-1.21364 2.05572,-2.79074 2.05572,-3.50476 0,-0.714 0.84564,-1.90653 1.87963,-2.6501 1.03398,-0.74361 3.01249,-3.41616 4.39714,-5.93912 1.38442,-2.52295 3.5651,-5.73358 4.84546,-7.13475 1.28043,-1.40115 2.32792,-3.09016 2.32792,-3.75334 0,-0.6632 0.83829,-2.10832 1.86204,-3.21144 1.02404,-1.10311 3.00297,-4.08073 4.39709,-6.61688 1.39411,-2.53622 3.34974,-5.446041 4.34551,-6.466377 0.99576,-1.0203 1.81083,-2.320745 1.81083,-2.889784 0,-0.569047 0.81508,-1.885188 1.8108,-2.924731 2.22012,-2.317531 5.35892,-7.306905 6.1335,-9.74936 0.31452,-0.995829 0.97588,-1.8106 1.46701,-1.8106 0.49109,0 1.84293,-1.862345 3.00424,-4.138483 1.16116,-2.276164 2.51295,-4.138476 3.00426,-4.138476 0.49109,0 1.15147,-0.814771 1.467,-1.810607 0.71435,-2.253228 3.94887,-7.637591 5.42993,-9.039614 0.6089,-0.576352 1.96247,-2.444683 3.00807,-4.151781 1.04545,-1.707106 2.52594,-3.476174 3.29014,-3.931234 0.7641,-0.455036 1.38874,-1.434606 1.38874,-2.176795 0,-0.742215 1.04749,-2.49586 2.32795,-3.897025 1.28043,-1.401141 3.43802,-4.611813 4.79486,-7.134758 1.35689,-2.522951 2.98646,-5.052753 3.62119,-5.621791 0.63509,-0.569039 2.23438,-3.246121 3.55463,-5.949061 1.3202,-2.702941 2.76026,-4.914442 3.19984,-4.914442 0.43969,0 1.87708,-2.095112 3.19397,-4.655788 1.31687,-2.560683 2.68113,-4.655788 3.03124,-4.655788 0.34991,0 1.53963,-1.745897 2.64366,-3.8798207 2.24306,-4.3359507 5.06892,-7.5009922 6.69718,-7.5009922 0.73958,0 1.07782,29.7126289 1.07782,94.6676639 v 94.667574 h 63.11172 c 38.45504,0 63.1118,0.37768 63.1118,0.9675 0,1.74928 -1.86892,5.92641 -3.31458,7.40777 -0.78039,0.79975 -2.54762,3.31615 -3.92774,5.59232 -1.37983,2.27593 -3.09701,4.74218 -3.81543,5.47999 -0.7182,0.73757 -2.06925,2.94929 -3.00174,4.91444 -0.93256,1.96501 -2.06085,3.5729 -2.50788,3.5729 -0.44677,0 -1.79628,1.88856 -2.99944,4.19623 -1.20271,2.30779 -3.1123,5.18921 -4.24297,6.4028 -1.13085,1.21367 -2.05575,2.79078 -2.05575,3.50479 0,0.71391 -0.84564,1.90665 -1.87961,2.64995 -1.034,0.74343 -3.01255,3.41623 -4.39712,5.93916 -1.38443,2.52289 -3.56513,5.73357 -4.84544,7.13472 -1.28044,1.40098 -2.32793,3.18254 -2.32793,3.9586 0,0.77628 -0.93126,2.20788 -2.06924,3.18271 -1.13822,0.97434 -2.06924,2.29862 -2.06924,2.94262 0,0.64402 -1.04749,2.31746 -2.32793,3.7185 -1.28044,1.401 -3.43802,4.61181 -4.79487,7.13479 -1.35715,2.52289 -2.98647,5.05869 -3.62118,5.63504 -1.49299,1.35588 -4.73945,6.71363 -5.47711,9.03964 -0.31453,0.99576 -0.97587,1.81083 -1.46699,1.81083 -0.4911,0 -1.82101,1.81946 -2.95567,4.04304 -1.1344,2.22368 -2.424,4.20237 -2.86636,4.39717 -0.99269,0.43758 -4.34782,5.91684 -5.12657,8.37239 -0.31452,0.99575 -0.94733,1.8108 -1.40378,1.8108 -0.45649,0 -1.88931,1.74582 -3.18509,3.87982 -1.29574,2.13424 -2.96292,4.25214 -3.70557,4.70719 -0.74239,0.45492 -1.35001,1.43488 -1.35001,2.17705 0,0.74212 -1.10102,2.53794 -2.44721,3.99016 -1.34619,1.45247 -3.4827,4.77946 -4.7481,7.39341 -1.26539,2.61414 -2.60938,4.75268 -2.98614,4.75268 -0.37723,0 -1.84852,2.19539 -3.27023,4.87858 -1.42161,2.68336 -3.6323,6.01028 -4.91262,7.39346 -1.28044,1.38264 -2.32794,3.0573 -2.32794,3.72054 0,0.66312 -0.82961,2.10823 -1.84367,3.21144 -1.01386,1.10305 -2.97536,3.86797 -4.35836,6.14413 -1.38366,2.2762 -3.10277,4.74218 -3.82129,5.48005 -0.71821,0.73782 -2.06923,2.94929 -3.00168,4.91443 -0.93255,1.96501 -2.06084,3.57287 -2.50761,3.57287 -0.44678,0 -1.79756,1.89059 -3.00169,4.20075 -1.20423,2.31035 -3.3464,5.44826 -4.7603,6.97309 -1.41373,1.52486 -2.57064,3.33604 -2.57064,4.02484 0,0.6886 -0.61801,1.62476 -1.37346,2.07968 -0.75517,0.45492 -2.50125,2.90261 -3.87979,5.43856 -1.37883,2.5364 -3.32127,5.44608 -4.31711,6.46644 -0.99575,1.02047 -1.81081,2.50506 -1.81081,3.2984 0,0.79388 -1.15581,2.53972 -2.56876,3.87987 -1.41299,1.34008 -2.57671,2.95059 -2.58648,3.57868 -0.009,0.62826 -1.06533,2.28843 -2.34576,3.68977 -1.28044,1.40099 -3.43799,4.61184 -4.79487,7.13476 -1.35689,2.52291 -2.98645,5.05876 -3.62116,5.6351 -1.493,1.35589 -4.73946,6.71364 -5.47711,9.03967 -0.31452,0.99575 -0.97587,1.81081 -1.46725,1.81081 -0.4911,0 -1.84292,1.86228 -3.00425,4.13848 -1.16091,2.27593 -2.51297,4.13845 -3.00425,4.13845 -0.49136,0 -1.15148,0.81455 -1.467,1.81081 -0.86632,2.73229 -4.15408,7.91025 -5.61623,8.84571 -0.71155,0.45493 -2.05447,2.31747 -2.98551,4.13847 -0.93077,1.82101 -2.32743,3.68341 -3.10369,4.13845 -0.77653,0.45492 -1.41194,1.43487 -1.41194,2.17679 0,0.7422 -1.04749,2.49001 -2.32793,3.88392 -1.28044,1.39412 -3.40812,4.72098 -4.72838,7.39341 -1.32044,2.67261 -2.71766,4.85891 -3.10561,4.85891 -0.38792,0 -1.8684,2.1954 -3.28994,4.8786 -1.42163,2.68307 -3.63228,6.01027 -4.91266,7.39341 -1.28045,1.38365 -2.32794,3.05736 -2.32794,3.72062 0,0.6632 -0.86807,2.13728 -1.92906,3.27656 -1.06125,1.13899 -2.47447,3.08913 -3.14024,4.33358 -0.66591,1.24425 -1.66018,2.26294 -2.20916,2.26294 -0.63386,0 -0.99829,-34.5471 -0.99829,-94.66766 z m 49.42953,-58.45598 c 0.4142,0 1.91583,-2.19539 3.33779,-4.8786 1.42162,-2.6834 3.63235,-6.01026 4.91268,-7.39342 1.28045,-1.38365 2.32897,-3.02869 2.33049,-3.65702 8.7e-4,-0.62826 1.40429,-2.7717 3.11767,-4.76334 1.71345,-1.9915 3.68821,-4.90152 4.38862,-6.46638 0.7006,-1.56461 1.61582,-2.84508 2.03483,-2.84508 0.41875,0 1.68924,-1.81947 2.8235,-4.04306 1.13441,-2.22342 2.42428,-4.20237 2.86636,-4.39714 0.44169,-0.19365 1.88396,-2.56565 3.20413,-5.26854 1.32019,-2.70306 2.76023,-4.9144 3.19982,-4.9144 0.43968,0 1.87708,-2.095 3.19396,-4.65582 1.31689,-2.56063 2.75421,-4.65581 3.19391,-4.65581 0.4396,0 1.84546,-2.09497 3.12468,-4.65578 1.27867,-2.56059 2.63497,-4.65578 3.01378,-4.65578 0.37872,0 1.7662,-2.09498 3.08303,-4.65579 1.31689,-2.56059 2.73994,-4.65578 3.16218,-4.65578 0.42234,0 1.75194,-1.88829 2.95468,-4.19621 1.20272,-2.30779 3.11229,-5.18921 4.24293,-6.4028 1.13084,-1.21366 2.05575,-2.74914 2.05575,-3.41237 0,-0.66321 1.09462,-2.38656 2.43216,-3.83009 1.33752,-1.44329 3.53436,-4.42122 4.88152,-6.61741 1.34696,-2.19643 3.27895,-4.89569 4.29287,-5.99884 1.0141,-1.10306 1.8437,-2.52825 1.8437,-3.16753 0,-0.63894 0.81455,-2.08785 1.81081,-3.22006 1.89491,-2.15437 4.3971,-6.20138 4.3971,-7.11209 0,-0.29236 -19.78205,-0.53112 -43.96018,-0.53112 h -43.96008 l -0.27003,-44.2299 c -0.21923,-35.93441 -0.50738,-43.69634 -1.53734,-41.38478 -0.69753,1.56487 -1.67166,2.84521 -2.16532,2.84521 -0.49364,0 -1.97545,2.09509 -3.29216,4.65578 -1.31689,2.56066 -2.73989,4.6558 -3.16212,4.6558 -0.42208,0 -1.75271,1.8903 -2.95695,4.20069 -1.20423,2.31038 -3.34631,5.44828 -4.76022,6.97312 -1.41373,1.52482 -2.57089,3.336 -2.57089,4.02484 0,0.68886 -0.61801,1.62473 -1.37347,2.07982 -0.75543,0.45501 -2.50148,2.90242 -3.87981,5.43857 -1.37882,2.53628 -3.32124,5.44604 -4.3171,6.4664 -0.99576,1.02022 -1.81081,2.48544 -1.81081,3.25598 0,0.7705 -1.04749,2.56326 -2.32794,3.98426 -2.78504,3.09069 -5.85781,7.89232 -6.65082,10.39286 -0.31452,0.99575 -0.97588,1.8108 -1.46725,1.8108 -0.4911,0 -1.84292,1.86256 -3.00422,4.13843 -1.16116,2.27619 -2.51297,4.13849 -3.00426,4.13849 -0.49109,0 -1.15148,0.81456 -1.467,1.81081 -0.77865,2.45562 -4.13387,7.93497 -5.12651,8.37239 -0.4417,0.19628 -1.7318,2.17348 -2.86638,4.3971 -1.13441,2.22343 -2.46429,4.04306 -2.95566,4.04306 -0.4911,0 -1.15149,0.81508 -1.46725,1.81081 -0.9318,2.93819 -4.18368,7.90334 -6.13348,9.36497 -0.99576,0.74623 -1.81084,1.98028 -1.81084,2.74179 0,0.76156 -1.15554,2.48111 -2.56876,3.82117 -1.41272,1.34008 -2.57671,2.95057 -2.58644,3.57871 -0.009,0.62826 -1.06534,2.30169 -2.34577,3.7182 -1.28043,1.41655 -3.58358,4.97669 -5.11825,7.91075 l -2.79042,5.33467 h 44.43377 44.43376 l 0.0455,44.22997 0.0455,44.22997 2.04859,-3.87981 c 1.1265,-2.13396 2.38707,-3.8798 2.80125,-3.8798 z M 44.459388,382.80132 V 360.03965 H 150.50788 256.55636 v 22.76167 22.76159 H 150.50788 44.459388 Z M 2.0400068,298.4877 V 276.23552 H 66.20697 130.37393 l -0.27957,21.98564 -0.27958,21.98566 -63.887738,0.26713 -63.8877298,0.26688 z M 44.459388,213.64105 v -22.24427 h 74.492602 74.49259 v 22.24427 22.24432 H 118.95199 44.459388 Z m 83.804172,-84.32144 v -22.76164 h 53.80019 53.8002 v 22.76164 22.76162 h -53.8002 -53.80019 z"
     id="path4" /></svg>
