<?xml version="1.0" encoding="UTF-8" standalone="no"?>
<!DOCTYPE svg PUBLIC "-//W3C//DTD SVG 1.1//EN"
 "http://www.w3.org/Graphics/SVG/1.1/DTD/svg11.dtd">
<!-- Generated by graphviz version 2.43.0 (0)
 -->
<!-- Title: Source/JumpyComponent.h Pages: 1 -->
<svg width="516pt" height="137pt"
 viewBox="0.00 0.00 515.50 137.00" xmlns="http://www.w3.org/2000/svg" xmlns:xlink="http://www.w3.org/1999/xlink">
<g id="graph0" class="graph" transform="scale(1 1) rotate(0) translate(4 133)">
<title>Source/JumpyComponent.h</title>
<!-- Node1 -->
<g id="Node000001" class="node">
<title>Node1</title>
<g id="a_Node000001"><a xlink:title=" ">
<polygon fill="#999999" stroke="#666666" points="324.5,-129 175.5,-129 175.5,-110 324.5,-110 324.5,-129"/>
<text text-anchor="middle" x="250" y="-117" font-family="Helvetica,sans-Serif" font-size="10.00">Source/JumpyComponent.h</text>
</a>
</g>
</g>
<!-- Node2 -->
<g id="Node000002" class="node">
<title>Node2</title>
<g id="a_Node000002"><a xlink:title=" ">
<polygon fill="#e0e0e0" stroke="#999999" points="304,-19 224,-19 224,0 304,0 304,-19"/>
<text text-anchor="middle" x="264" y="-7" font-family="Helvetica,sans-Serif" font-size="10.00">JuceHeader.h</text>
</a>
</g>
</g>
<!-- Node1&#45;&gt;Node2 -->
<g id="edge1_Node000001_Node000002" class="edge">
<title>Node1&#45;&gt;Node2</title>
<g id="a_edge1_Node000001_Node000002"><a xlink:title=" ">
<path fill="none" stroke="#63b8ff" d="M256.63,-109.88C262.76,-101.32 271.46,-87.54 275,-74 278.94,-58.95 275.35,-41.51 271.25,-28.72"/>
<polygon fill="#63b8ff" stroke="#63b8ff" points="274.52,-27.46 267.85,-19.23 267.93,-29.82 274.52,-27.46"/>
</a>
</g>
</g>
<!-- Node3 -->
<g id="Node000003" class="node">
<title>Node3</title>
<g id="a_Node000003"><a xlink:title=" ">
<polygon fill="#e0e0e0" stroke="#999999" points="266,-74 146,-74 146,-55 266,-55 266,-74"/>
<text text-anchor="middle" x="206" y="-62" font-family="Helvetica,sans-Serif" font-size="10.00">FixedFontTextEditor.h</text>
</a>
</g>
</g>
<!-- Node1&#45;&gt;Node3 -->
<g id="edge2_Node000001_Node000003" class="edge">
<title>Node1&#45;&gt;Node3</title>
<g id="a_edge2_Node000001_Node000003"><a xlink:title=" ">
<path fill="none" stroke="#63b8ff" d="M242.73,-109.75C236.46,-102.18 227.21,-91.05 219.57,-81.84"/>
<polygon fill="#63b8ff" stroke="#63b8ff" points="222.21,-79.55 213.13,-74.09 216.83,-84.02 222.21,-79.55"/>
</a>
</g>
</g>
<!-- Node4 -->
<g id="Node000004" class="node">
<title>Node4</title>
<g id="a_Node000004"><a xlink:href="JumpyConfiguration_8h.html" target="_top" xlink:title=" ">
<polygon fill="white" stroke="#666666" points="128,-74 6,-74 6,-55 128,-55 128,-74"/>
<text text-anchor="middle" x="67" y="-62" font-family="Helvetica,sans-Serif" font-size="10.00">JumpyConfiguration.h</text>
</a>
</g>
</g>
<!-- Node1&#45;&gt;Node4 -->
<g id="edge3_Node000001_Node000004" class="edge">
<title>Node1&#45;&gt;Node4</title>
<g id="a_edge3_Node000001_Node000004"><a xlink:title=" ">
<path fill="none" stroke="#63b8ff" d="M220.6,-109.98C189.61,-101.01 140.62,-86.82 106.33,-76.89"/>
<polygon fill="#63b8ff" stroke="#63b8ff" points="107.21,-73.5 96.63,-74.08 105.26,-80.23 107.21,-73.5"/>
</a>
</g>
</g>
<!-- Node6 -->
<g id="Node000006" class="node">
<title>Node6</title>
<g id="a_Node000006"><a xlink:href="CustomTriggerButton_8h.html" target="_top" xlink:title=" ">
<polygon fill="white" stroke="#666666" points="450,-74 322,-74 322,-55 450,-55 450,-74"/>
<text text-anchor="middle" x="386" y="-62" font-family="Helvetica,sans-Serif" font-size="10.00">CustomTriggerButton.h</text>
</a>
</g>
</g>
<!-- Node1&#45;&gt;Node6 -->
<g id="edge6_Node000001_Node000006" class="edge">
<title>Node1&#45;&gt;Node6</title>
<g id="a_edge6_Node000001_Node000006"><a xlink:title=" ">
<path fill="none" stroke="#63b8ff" d="M271.85,-109.98C294.12,-101.3 328.9,-87.75 354.22,-77.88"/>
<polygon fill="#63b8ff" stroke="#63b8ff" points="355.71,-81.06 363.75,-74.17 353.16,-74.54 355.71,-81.06"/>
</a>
</g>
</g>
<!-- Node4&#45;&gt;Node2 -->
<g id="edge4_Node000004_Node000002" class="edge">
<title>Node4&#45;&gt;Node2</title>
<g id="a_edge4_Node000004_Node000002"><a xlink:title=" ">
<path fill="none" stroke="#63b8ff" d="M98.65,-54.98C132.16,-45.97 185.2,-31.7 222.14,-21.76"/>
<polygon fill="#63b8ff" stroke="#63b8ff" points="223.35,-25.06 232.1,-19.08 221.53,-18.3 223.35,-25.06"/>
</a>
</g>
</g>
<!-- Node5 -->
<g id="Node000005" class="node">
<title>Node5</title>
<g id="a_Node000005"><a xlink:title=" ">
<polygon fill="#e0e0e0" stroke="#999999" points="134,-19 0,-19 0,0 134,0 134,-19"/>
<text text-anchor="middle" x="67" y="-7" font-family="Helvetica,sans-Serif" font-size="10.00">AppConfigurationBase.h</text>
</a>
</g>
</g>
<!-- Node4&#45;&gt;Node5 -->
<g id="edge5_Node000004_Node000005" class="edge">
<title>Node4&#45;&gt;Node5</title>
<g id="a_edge5_Node000004_Node000005"><a xlink:title=" ">
<path fill="none" stroke="#63b8ff" d="M67,-54.75C67,-47.8 67,-37.85 67,-29.13"/>
<polygon fill="#63b8ff" stroke="#63b8ff" points="70.5,-29.09 67,-19.09 63.5,-29.09 70.5,-29.09"/>
</a>
</g>
</g>
<!-- Node6&#45;&gt;Node2 -->
<g id="edge7_Node000006_Node000002" class="edge">
<title>Node6&#45;&gt;Node2</title>
<g id="a_edge7_Node000006_Node000002"><a xlink:title=" ">
<path fill="none" stroke="#63b8ff" d="M366.4,-54.98C346.68,-46.42 316.05,-33.11 293.42,-23.28"/>
<polygon fill="#63b8ff" stroke="#63b8ff" points="294.52,-19.94 283.96,-19.17 291.74,-26.37 294.52,-19.94"/>
</a>
</g>
</g>
<!-- Node7 -->
<g id="Node000007" class="node">
<title>Node7</title>
<g id="a_Node000007"><a xlink:title=" ">
<polygon fill="#e0e0e0" stroke="#999999" points="507.5,-19 322.5,-19 322.5,0 507.5,0 507.5,-19"/>
<text text-anchor="middle" x="415" y="-7" font-family="Helvetica,sans-Serif" font-size="10.00">MidiCommandRangeAssignment.h</text>
</a>
</g>
</g>
<!-- Node6&#45;&gt;Node7 -->
<g id="edge8_Node000006_Node000007" class="edge">
<title>Node6&#45;&gt;Node7</title>
<g id="a_edge8_Node000006_Node000007"><a xlink:title=" ">
<path fill="none" stroke="#63b8ff" d="M390.79,-54.75C394.76,-47.49 400.53,-36.95 405.43,-27.98"/>
<polygon fill="#63b8ff" stroke="#63b8ff" points="408.57,-29.54 410.3,-19.09 402.43,-26.18 408.57,-29.54"/>
</a>
</g>
</g>
</g>
</svg>
